<svg enable-background="new 0 0 471.04 471.04" viewBox="0 0 471.04 471.04" xmlns="http://www.w3.org/2000/svg"><path d="m332.544 10.24v40.96c0 22.528 18.432 40.96 40.96 40.96h40.96z"/><path d="m373.504 112.64c-33.792 0-61.44-27.648-61.44-61.44v-51.2h-143.36c-28.16 0-51.2 23.04-51.2 51.2v358.4c0 28.16 23.04 51.2 51.2 51.2h51.712c27.648 0 50.688-22.528 50.688-50.688v-51.2c0-28.672 23.04-51.712 51.712-51.712h51.712c27.648 0 50.688-22.528 50.688-50.688v-143.872zm-204.8-71.68h102.4c5.632 0 10.24 4.608 10.24 10.24s-4.608 10.24-10.24 10.24h-102.4c-5.632 0-10.24-4.608-10.24-10.24s4.608-10.24 10.24-10.24zm204.8 225.28h-204.8c-5.632 0-10.24-4.608-10.24-10.24s4.608-10.24 10.24-10.24h204.8c5.632 0 10.24 4.608 10.24 10.24s-4.608 10.24-10.24 10.24zm0-51.2h-204.8c-5.632 0-10.24-4.608-10.24-10.24s4.608-10.24 10.24-10.24h204.8c5.632 0 10.24 4.608 10.24 10.24s-4.608 10.24-10.24 10.24zm0-51.2h-204.8c-5.632 0-10.24-4.608-10.24-10.24s4.608-10.24 10.24-10.24h204.8c5.632 0 10.24 4.608 10.24 10.24s-4.608 10.24-10.24 10.24z"/><path d="m97.024 409.6v-358.4c0-20.992 10.752-39.936 27.136-51.2-26.624 2.048-47.616 24.064-47.616 51.2v358.4c0 27.136 20.992 49.152 47.616 51.2-16.384-11.264-27.136-30.208-27.136-51.2z"/><path d="m56.576 409.6v-358.4c0-20.992 10.752-39.936 27.136-51.2-26.624 2.048-47.616 24.064-47.616 51.2v358.4c0 27.136 20.992 49.152 47.616 51.2-16.384-11.264-27.136-30.208-27.136-51.2z"/><path d="m424.704 399.36h-40.96v-40.96c0-5.632-4.608-10.24-10.24-10.24s-10.24 4.608-10.24 10.24v40.96h-40.96c-5.632 0-10.24 4.608-10.24 10.24s4.608 10.24 10.24 10.24h40.96v40.96c0 5.632 4.608 10.24 10.24 10.24s10.24-4.608 10.24-10.24v-40.96h40.96c5.632 0 10.24-4.608 10.24-10.24s-4.608-10.24-10.24-10.24z"/></svg>